<mxfile host="app.diagrams.net" agent="Mozilla/5.0 (Windows NT 10.0; Win64; x64) AppleWebKit/537.36 (KHTML, like Gecko) Chrome/136.0.0.0 Safari/537.36 Edg/136.0.0.0" version="27.0.2">
  <diagram name="Page-1" id="TuSAUj7IL6eheAN_gJC7">
    <mxGraphModel dx="1378" dy="832" grid="1" gridSize="10" guides="1" tooltips="1" connect="1" arrows="1" fold="1" page="1" pageScale="1" pageWidth="827" pageHeight="1169" math="0" shadow="0">
      <root>
        <mxCell id="0" />
        <mxCell id="1" parent="0" />
        <mxCell id="D2SJP2fWWxtvxuzkvLlc-10" value="" style="edgeStyle=orthogonalEdgeStyle;rounded=0;orthogonalLoop=1;jettySize=auto;html=1;" edge="1" parent="1" source="D2SJP2fWWxtvxuzkvLlc-1" target="D2SJP2fWWxtvxuzkvLlc-4">
          <mxGeometry relative="1" as="geometry" />
        </mxCell>
        <mxCell id="D2SJP2fWWxtvxuzkvLlc-1" value="Eleve" style="ellipse;whiteSpace=wrap;html=1;fillColor=#d5e8d4;strokeColor=#82b366;" vertex="1" parent="1">
          <mxGeometry x="80" y="160" width="120" height="80" as="geometry" />
        </mxCell>
        <mxCell id="D2SJP2fWWxtvxuzkvLlc-13" value="" style="edgeStyle=orthogonalEdgeStyle;rounded=0;orthogonalLoop=1;jettySize=auto;html=1;" edge="1" parent="1" source="D2SJP2fWWxtvxuzkvLlc-2" target="D2SJP2fWWxtvxuzkvLlc-5">
          <mxGeometry relative="1" as="geometry" />
        </mxCell>
        <mxCell id="D2SJP2fWWxtvxuzkvLlc-2" value="Mentor/Bénévole" style="ellipse;whiteSpace=wrap;html=1;fillColor=#d5e8d4;strokeColor=#82b366;" vertex="1" parent="1">
          <mxGeometry x="590" y="160" width="120" height="80" as="geometry" />
        </mxCell>
        <mxCell id="D2SJP2fWWxtvxuzkvLlc-3" value="Diagramme de cas d’usage – Calendrier" style="rounded=1;whiteSpace=wrap;html=1;" vertex="1" parent="1">
          <mxGeometry x="400" y="40" width="360" height="40" as="geometry" />
        </mxCell>
        <mxCell id="D2SJP2fWWxtvxuzkvLlc-11" value="" style="edgeStyle=orthogonalEdgeStyle;rounded=0;orthogonalLoop=1;jettySize=auto;html=1;" edge="1" parent="1" source="D2SJP2fWWxtvxuzkvLlc-4" target="D2SJP2fWWxtvxuzkvLlc-6">
          <mxGeometry relative="1" as="geometry" />
        </mxCell>
        <mxCell id="D2SJP2fWWxtvxuzkvLlc-4" value="Créer un évènement&lt;div&gt;ou rdv&lt;/div&gt;" style="shape=hexagon;perimeter=hexagonPerimeter2;whiteSpace=wrap;html=1;fixedSize=1;fillColor=#ffe6cc;strokeColor=#d79b00;" vertex="1" parent="1">
          <mxGeometry x="80" y="280" width="120" height="80" as="geometry" />
        </mxCell>
        <mxCell id="D2SJP2fWWxtvxuzkvLlc-14" value="" style="edgeStyle=orthogonalEdgeStyle;rounded=0;orthogonalLoop=1;jettySize=auto;html=1;" edge="1" parent="1" source="D2SJP2fWWxtvxuzkvLlc-5" target="D2SJP2fWWxtvxuzkvLlc-8">
          <mxGeometry relative="1" as="geometry" />
        </mxCell>
        <mxCell id="D2SJP2fWWxtvxuzkvLlc-5" value="Créer un évènement&lt;div&gt;ou rdv&lt;/div&gt;" style="shape=hexagon;perimeter=hexagonPerimeter2;whiteSpace=wrap;html=1;fixedSize=1;fillColor=#e1d5e7;strokeColor=#9673a6;" vertex="1" parent="1">
          <mxGeometry x="590" y="280" width="120" height="80" as="geometry" />
        </mxCell>
        <mxCell id="D2SJP2fWWxtvxuzkvLlc-12" value="" style="edgeStyle=orthogonalEdgeStyle;rounded=0;orthogonalLoop=1;jettySize=auto;html=1;" edge="1" parent="1" source="D2SJP2fWWxtvxuzkvLlc-6" target="D2SJP2fWWxtvxuzkvLlc-7">
          <mxGeometry relative="1" as="geometry" />
        </mxCell>
        <mxCell id="D2SJP2fWWxtvxuzkvLlc-6" value="Modifier un évènement&amp;nbsp;&lt;div&gt;ou rdv&lt;/div&gt;" style="shape=hexagon;perimeter=hexagonPerimeter2;whiteSpace=wrap;html=1;fixedSize=1;fillColor=#ffe6cc;strokeColor=#d79b00;" vertex="1" parent="1">
          <mxGeometry x="80" y="400" width="120" height="80" as="geometry" />
        </mxCell>
        <mxCell id="D2SJP2fWWxtvxuzkvLlc-19" value="" style="edgeStyle=orthogonalEdgeStyle;rounded=0;orthogonalLoop=1;jettySize=auto;html=1;" edge="1" parent="1" source="D2SJP2fWWxtvxuzkvLlc-7" target="D2SJP2fWWxtvxuzkvLlc-16">
          <mxGeometry relative="1" as="geometry" />
        </mxCell>
        <mxCell id="D2SJP2fWWxtvxuzkvLlc-7" value="Supprimer un&lt;div&gt;évènement&amp;nbsp;&lt;/div&gt;&lt;div&gt;ou rdv&lt;/div&gt;" style="shape=hexagon;perimeter=hexagonPerimeter2;whiteSpace=wrap;html=1;fixedSize=1;fillColor=#ffe6cc;strokeColor=#d79b00;" vertex="1" parent="1">
          <mxGeometry x="80" y="520" width="120" height="80" as="geometry" />
        </mxCell>
        <mxCell id="D2SJP2fWWxtvxuzkvLlc-15" value="" style="edgeStyle=orthogonalEdgeStyle;rounded=0;orthogonalLoop=1;jettySize=auto;html=1;" edge="1" parent="1" source="D2SJP2fWWxtvxuzkvLlc-8" target="D2SJP2fWWxtvxuzkvLlc-9">
          <mxGeometry relative="1" as="geometry" />
        </mxCell>
        <mxCell id="D2SJP2fWWxtvxuzkvLlc-8" value="Modifier un&amp;nbsp;&lt;div&gt;évènement&amp;nbsp;&lt;/div&gt;&lt;div&gt;ou rdv&lt;/div&gt;" style="shape=hexagon;perimeter=hexagonPerimeter2;whiteSpace=wrap;html=1;fixedSize=1;fillColor=#e1d5e7;strokeColor=#9673a6;" vertex="1" parent="1">
          <mxGeometry x="590" y="400" width="120" height="80" as="geometry" />
        </mxCell>
        <mxCell id="D2SJP2fWWxtvxuzkvLlc-18" value="" style="edgeStyle=orthogonalEdgeStyle;rounded=0;orthogonalLoop=1;jettySize=auto;html=1;" edge="1" parent="1" source="D2SJP2fWWxtvxuzkvLlc-9" target="D2SJP2fWWxtvxuzkvLlc-17">
          <mxGeometry relative="1" as="geometry" />
        </mxCell>
        <mxCell id="D2SJP2fWWxtvxuzkvLlc-9" value="Supprimer un&lt;div&gt;évènement&amp;nbsp;&lt;/div&gt;&lt;div&gt;ou rdv&lt;/div&gt;" style="shape=hexagon;perimeter=hexagonPerimeter2;whiteSpace=wrap;html=1;fixedSize=1;fillColor=#e1d5e7;strokeColor=#9673a6;" vertex="1" parent="1">
          <mxGeometry x="590" y="520" width="120" height="80" as="geometry" />
        </mxCell>
        <mxCell id="D2SJP2fWWxtvxuzkvLlc-16" value="Consulter le calendrier" style="shape=hexagon;perimeter=hexagonPerimeter2;whiteSpace=wrap;html=1;fixedSize=1;fillColor=#ffe6cc;strokeColor=#d79b00;" vertex="1" parent="1">
          <mxGeometry x="80" y="640" width="120" height="80" as="geometry" />
        </mxCell>
        <mxCell id="D2SJP2fWWxtvxuzkvLlc-17" value="Consulter le calendrier" style="shape=hexagon;perimeter=hexagonPerimeter2;whiteSpace=wrap;html=1;fixedSize=1;fillColor=#e1d5e7;strokeColor=#9673a6;" vertex="1" parent="1">
          <mxGeometry x="590" y="640" width="120" height="80" as="geometry" />
        </mxCell>
      </root>
    </mxGraphModel>
  </diagram>
</mxfile>
